<?xml version="1.0" encoding="UTF-8" standalone="no"?>
<svg
   xmlns:dc="http://purl.org/dc/elements/1.1/"
   xmlns:cc="http://creativecommons.org/ns#"
   xmlns:rdf="http://www.w3.org/1999/02/22-rdf-syntax-ns#"
   xmlns:svg="http://www.w3.org/2000/svg"
   xmlns="http://www.w3.org/2000/svg"
   xmlns:sodipodi="http://sodipodi.sourceforge.net/DTD/sodipodi-0.dtd"
   xmlns:inkscape="http://www.inkscape.org/namespaces/inkscape"
   sodipodi:docname="kamusi-profile.svg"
   inkscape:version="1.0.2 (e86c870879, 2021-01-15)"
   id="svg957"
   version="1.1"
   viewBox="0 0 210 210"
   height="210mm"
   width="210mm"
   inkscape:export-filename="/home/yutyo/Resimler/kamusi-profile.png"
   inkscape:export-xdpi="120.95238"
   inkscape:export-ydpi="120.95238">
  <defs
     id="defs951" />
  <sodipodi:namedview
     inkscape:window-maximized="0"
     inkscape:window-y="25"
     inkscape:window-x="40"
     inkscape:window-height="715"
     inkscape:window-width="1326"
     showgrid="false"
     inkscape:document-rotation="0"
     inkscape:current-layer="layer1"
     inkscape:document-units="mm"
     inkscape:cy="560"
     inkscape:cx="-478.34076"
     inkscape:zoom="0.33289703"
     inkscape:pageshadow="2"
     inkscape:pageopacity="0.0"
     borderopacity="1.0"
     bordercolor="#666666"
     pagecolor="#ffffff"
     id="base" />
  <metadata
     id="metadata954">
    <rdf:RDF>
      <cc:Work
         rdf:about="">
        <dc:format>image/svg+xml</dc:format>
        <dc:type
           rdf:resource="http://purl.org/dc/dcmitype/StillImage" />
        <dc:title></dc:title>
      </cc:Work>
    </rdf:RDF>
  </metadata>
  <g
     id="layer1"
     inkscape:groupmode="layer"
     inkscape:label="Katman 1">
    <rect
       y="-2.370018"
       x="-2.370018"
       height="214.74004"
       width="214.74004"
       id="rect987"
       style="fill:#00c65e;fill-opacity:1;stroke-width:1;stroke-linecap:round;paint-order:stroke fill markers" />
    <g
       transform="matrix(0.66789929,0,0,0.66789929,-647.15178,-647.15078)"
       style="fill:#ffffff;fill-opacity:1;stroke:none"
       id="Circle.014">
      <path
         id="path2"
         d="m 1125.442,1000.054 -0.707,0.165 -0.716,0.281 -0.73,0.399 -0.746,0.521 -0.76,0.643 -0.771,0.764 -0.778,0.883 -0.781,1 -0.78,1.111 -0.777,1.215 -0.769,1.311 -0.759,1.401 -0.747,1.482 -0.733,1.556 -0.719,1.623 -0.703,1.682 -0.686,1.733 -0.669,1.778 -0.651,1.815 -0.633,1.846 -0.614,1.869 -0.595,1.885 -0.576,1.894 -0.557,1.897 -0.537,1.892 -0.517,1.881 -0.497,1.863 -0.477,1.838 -0.457,1.807 -0.437,1.769 -0.416,1.723 -0.395,1.672 -0.375,1.614 -0.354,1.549 -0.333,1.477 -0.312,1.4 -0.291,1.316 -0.27,1.227 -0.25,1.133 -0.214,1.042 -0.103,0.986 0.099,0.975 0.393,1.008 0.746,1.074 1.035,1.132 1.227,1.17 1.323,1.189 1.339,1.192 1.339,1.192 1.339,1.192 1.339,1.192 1.339,1.192 1.339,1.192 1.339,1.192 1.339,1.192 1.325,1.117 1.241,0.666 1.074,-0.237 0.823,-1.591 0.519,-3.188 0.284,-4.199 0.149,-4.414 0.115,-3.835 0.168,-2.645 0.262,-1.581 0.384,-0.827 0.535,-0.384 0.695,-0.199 0.785,-0.066 0.785,0.066 0.695,0.199 0.535,0.384 0.384,0.827 0.262,1.581 0.168,2.645 0.115,3.835 0.149,4.414 0.284,4.199 0.519,3.188 0.823,1.591 1.074,0.237 1.241,-0.666 1.325,-1.117 1.339,-1.192 1.339,-1.192 1.339,-1.192 1.339,-1.192 1.339,-1.192 1.339,-1.192 1.339,-1.192 1.339,-1.192 1.323,-1.189 1.227,-1.17 1.035,-1.132 0.746,-1.074 0.393,-1.008 0.099,-0.975 -0.103,-0.986 -0.214,-1.042 -0.25,-1.133 -0.27,-1.227 -0.291,-1.316 -0.312,-1.4 -0.333,-1.477 -0.354,-1.549 -0.375,-1.614 -0.395,-1.672 -0.416,-1.724 -0.437,-1.769 -0.457,-1.807 -0.477,-1.838 -0.497,-1.863 -0.517,-1.881 -0.537,-1.892 -0.557,-1.897 -0.576,-1.894 -0.595,-1.885 -0.614,-1.869 -0.633,-1.846 -0.651,-1.815 -0.669,-1.778 -0.686,-1.733 -0.703,-1.682 -0.719,-1.623 -0.733,-1.556 -0.747,-1.482 -0.759,-1.401 -0.769,-1.311 -0.777,-1.215 -0.78,-1.111 -0.781,-1 -0.778,-0.883 -0.771,-0.764 -0.76,-0.643 -0.746,-0.521 -0.73,-0.399 -0.716,-0.281 -0.707,-0.165 -0.703,-0.054 z m 0,252.18 -0.707,-0.165 -0.716,-0.281 -0.73,-0.399 -0.746,-0.521 -0.76,-0.643 -0.771,-0.764 -0.778,-0.883 -0.781,-1 -0.78,-1.111 -0.777,-1.215 -0.769,-1.311 -0.759,-1.401 -0.747,-1.482 -0.733,-1.556 -0.719,-1.623 -0.703,-1.682 -0.686,-1.733 -0.669,-1.778 -0.651,-1.815 -0.633,-1.846 -0.614,-1.869 -0.595,-1.885 -0.576,-1.894 -0.557,-1.897 -0.537,-1.892 -0.517,-1.881 -0.497,-1.863 -0.477,-1.838 -0.457,-1.807 -0.437,-1.769 -0.416,-1.723 -0.395,-1.672 -0.375,-1.614 -0.354,-1.549 -0.333,-1.477 -0.312,-1.4 -0.291,-1.316 -0.27,-1.227 -0.25,-1.133 -0.214,-1.042 -0.103,-0.986 0.099,-0.975 0.393,-1.008 0.746,-1.074 1.035,-1.132 1.227,-1.17 1.323,-1.189 1.339,-1.192 1.339,-1.192 1.339,-1.192 1.339,-1.192 1.339,-1.192 1.339,-1.192 1.339,-1.192 1.339,-1.192 1.325,-1.117 1.241,-0.666 1.074,0.237 0.823,1.591 0.519,3.188 0.284,4.199 0.149,4.414 0.115,3.835 0.168,2.645 0.262,1.581 0.384,0.827 0.535,0.384 0.695,0.199 0.785,0.066 0.785,-0.066 0.695,-0.199 0.535,-0.384 0.384,-0.827 0.262,-1.581 0.168,-2.645 0.115,-3.835 0.149,-4.414 0.284,-4.199 0.519,-3.188 0.823,-1.591 1.074,-0.237 1.241,0.666 1.325,1.117 1.339,1.192 1.339,1.192 1.339,1.192 1.339,1.192 1.339,1.192 1.339,1.192 1.339,1.192 1.339,1.192 1.323,1.189 1.227,1.17 1.035,1.132 0.746,1.074 0.393,1.008 0.099,0.975 -0.103,0.986 -0.214,1.042 -0.25,1.133 -0.27,1.227 -0.291,1.316 -0.312,1.4 -0.333,1.477 -0.354,1.549 -0.375,1.614 -0.395,1.672 -0.416,1.724 -0.437,1.769 -0.457,1.807 -0.477,1.838 -0.497,1.863 -0.517,1.881 -0.537,1.892 -0.557,1.897 -0.576,1.894 -0.595,1.885 -0.614,1.869 -0.633,1.845 -0.651,1.815 -0.669,1.778 -0.686,1.733 -0.703,1.682 -0.719,1.623 -0.733,1.556 -0.747,1.482 -0.759,1.401 -0.769,1.311 -0.777,1.215 -0.78,1.111 -0.781,1 -0.778,0.883 -0.771,0.764 -0.76,0.643 -0.746,0.521 -0.73,0.4 -0.716,0.281 -0.707,0.165 -0.703,0.054 z m 78.554,-35.622 -1.501,-0.363 -1.555,-0.435 -1.602,-0.503 -1.644,-0.567 -1.679,-0.627 -1.708,-0.681 -1.732,-0.732 -1.75,-0.777 -1.762,-0.818 -1.77,-0.854 -1.772,-0.885 -1.769,-0.911 -1.761,-0.933 -1.748,-0.949 -1.73,-0.961 -1.707,-0.968 -1.679,-0.971 -1.646,-0.968 -1.609,-0.961 -1.566,-0.949 -1.519,-0.932 -1.467,-0.91 -1.411,-0.884 -1.349,-0.853 -1.283,-0.818 -1.213,-0.777 -1.139,-0.733 -1.061,-0.685 -0.979,-0.632 -0.9,-0.579 -0.847,-0.536 -0.825,-0.508 -0.835,-0.494 -0.87,-0.493 -0.903,-0.503 -0.928,-0.522 -0.945,-0.552 -0.964,-0.6 -1.03,-0.697 -1.154,-0.852 -1.335,-1.064 -1.548,-1.313 -1.685,-1.52 -1.721,-1.666 -1.654,-1.75 -1.507,-1.783 -1.367,-1.811 -1.256,-1.845 -1.174,-1.884 -1.114,-1.93 -1.05,-1.988 -0.975,-2.058 -0.889,-2.141 -0.794,-2.235 -0.691,-2.337 -0.582,-2.446 -0.467,-2.561 -0.348,-2.68 -0.233,-2.794 -0.125,-2.899 -0.023,-2.997 0.14,-2.977 0.634,-2.408 1.527,-1.181 2.82,0.704 4.308,2.964 5.175,4.467 5.219,4.932 4.439,4.359 3.037,2.979 1.817,1.73 0.982,0.845 0.531,0.322 0.402,0.108 0.342,-0.021 0.288,-0.121 0.24,-0.192 0.192,-0.24 0.121,-0.288 0.021,-0.342 -0.108,-0.402 -0.322,-0.531 -0.845,-0.982 -1.73,-1.817 -2.979,-3.037 -4.359,-4.439 -4.932,-5.219 -4.467,-5.175 -2.964,-4.308 -0.704,-2.821 1.181,-1.533 2.408,-0.65 2.977,-0.172 2.997,-0.031 2.899,0.043 2.794,0.115 2.68,0.187 2.561,0.264 2.446,0.368 2.337,0.504 2.235,0.672 2.141,0.86 2.057,1.011 1.984,1.113 1.924,1.166 1.874,1.188 1.834,1.256 1.802,1.388 1.78,1.584 1.754,1.811 1.675,1.928 1.531,1.901 1.323,1.73 1.07,1.452 0.855,1.213 0.698,1.052 0.6,0.967 0.552,0.945 0.522,0.928 0.503,0.903 0.493,0.87 0.494,0.835 0.508,0.825 0.536,0.847 0.579,0.9 0.632,0.979 0.685,1.061 0.733,1.139 0.777,1.213 0.818,1.283 0.853,1.349 0.884,1.411 0.91,1.467 0.932,1.519 0.949,1.566 0.961,1.609 0.968,1.646 0.971,1.679 0.968,1.707 0.961,1.73 0.949,1.748 0.933,1.761 0.911,1.769 0.885,1.772 0.854,1.77 0.818,1.762 0.777,1.75 0.732,1.731 0.681,1.708 0.627,1.679 0.567,1.644 0.503,1.602 0.435,1.555 0.363,1.501 0.287,1.44 0.209,1.372 0.128,1.296 0.046,1.215 -0.037,1.129 -0.118,1.041 -0.199,0.95 -0.278,0.857 -0.357,0.767 -0.437,0.68 -0.517,0.597 -0.597,0.517 -0.68,0.437 -0.767,0.357 -0.857,0.278 -0.95,0.199 -1.041,0.118 -1.129,0.037 -1.215,-0.046 -1.296,-0.128 -1.372,-0.209 z m 33.883,-102.444 -1.682,-0.703 -1.733,-0.686 -1.778,-0.669 -1.815,-0.651 -1.846,-0.633 -1.869,-0.614 -1.885,-0.595 -1.894,-0.576 -1.897,-0.557 -1.892,-0.537 -1.881,-0.517 -1.863,-0.497 -1.838,-0.477 -1.807,-0.457 -1.769,-0.437 -1.723,-0.416 -1.672,-0.395 -1.614,-0.375 -1.549,-0.354 -1.477,-0.333 -1.4,-0.312 -1.316,-0.291 -1.227,-0.27 -1.133,-0.25 -1.043,-0.212 -0.992,-0.088 -0.991,0.139 -1.039,0.469 -1.13,0.873 -1.238,1.224 -1.356,1.493 -1.485,1.679 -1.615,1.786 -1.713,1.827 -1.77,1.805 -1.786,1.722 -1.775,1.591 -1.795,1.475 -1.861,1.387 -1.973,1.329 -2.067,1.296 -1.89,1.274 -1.379,1.259 -0.534,1.252 0.534,1.252 1.379,1.259 1.89,1.274 2.067,1.296 1.973,1.329 1.861,1.387 1.795,1.475 1.775,1.591 1.786,1.722 1.77,1.805 1.713,1.827 1.615,1.786 1.485,1.679 1.356,1.493 1.238,1.224 1.13,0.873 1.039,0.469 0.991,0.139 0.992,-0.088 1.043,-0.212 1.133,-0.25 1.227,-0.27 1.316,-0.291 1.4,-0.312 1.477,-0.333 1.549,-0.354 1.614,-0.375 1.672,-0.395 1.723,-0.416 1.769,-0.437 1.807,-0.457 1.838,-0.477 1.863,-0.497 1.881,-0.517 1.892,-0.537 1.897,-0.557 1.894,-0.576 1.885,-0.595 1.869,-0.614 1.846,-0.633 1.815,-0.651 1.778,-0.669 1.733,-0.686 1.682,-0.703 1.623,-0.719 1.556,-0.733 1.482,-0.747 1.401,-0.759 1.311,-0.769 1.215,-0.777 1.111,-0.78 1,-0.781 0.883,-0.778 0.764,-0.771 0.643,-0.76 0.521,-0.746 0.4,-0.73 0.281,-0.716 0.165,-0.707 0.054,-0.703 -0.054,-0.703 -0.165,-0.707 -0.281,-0.716 -0.399,-0.73 -0.521,-0.746 -0.643,-0.76 -0.764,-0.771 -0.883,-0.778 -1,-0.781 -1.111,-0.78 -1.215,-0.777 -1.311,-0.769 -1.401,-0.759 -1.482,-0.747 -1.556,-0.733 z m -189.585,102.444 1.501,-0.363 1.555,-0.435 1.602,-0.503 1.644,-0.567 1.679,-0.627 1.708,-0.681 1.732,-0.732 1.75,-0.777 1.762,-0.818 1.77,-0.854 1.772,-0.885 1.769,-0.911 1.761,-0.933 1.748,-0.949 1.73,-0.961 1.707,-0.968 1.679,-0.971 1.646,-0.968 1.609,-0.961 1.566,-0.949 1.519,-0.932 1.467,-0.91 1.411,-0.884 1.349,-0.853 1.283,-0.818 1.213,-0.777 1.139,-0.733 1.061,-0.685 0.979,-0.632 0.9,-0.579 0.847,-0.536 0.825,-0.508 0.835,-0.494 0.87,-0.493 0.903,-0.503 0.928,-0.522 0.945,-0.552 0.964,-0.6 1.03,-0.697 1.154,-0.852 1.335,-1.064 1.548,-1.313 1.685,-1.52 1.721,-1.666 1.654,-1.75 1.507,-1.783 1.367,-1.811 1.256,-1.845 1.174,-1.884 1.114,-1.93 1.05,-1.988 0.975,-2.058 0.889,-2.141 0.794,-2.235 0.691,-2.337 0.582,-2.446 0.467,-2.561 0.348,-2.68 0.233,-2.794 0.125,-2.899 0.023,-2.997 -0.14,-2.977 -0.634,-2.408 -1.527,-1.181 -2.82,0.704 -4.308,2.964 -5.175,4.467 -5.219,4.932 -4.439,4.359 -3.037,2.979 -1.817,1.73 -0.982,0.845 -0.531,0.322 -0.402,0.108 -0.342,-0.021 -0.288,-0.121 -0.24,-0.192 -0.192,-0.24 -0.121,-0.288 -0.021,-0.342 0.108,-0.402 0.322,-0.531 0.845,-0.982 1.73,-1.817 2.979,-3.037 4.359,-4.439 4.932,-5.219 4.467,-5.175 2.964,-4.308 0.704,-2.821 -1.181,-1.533 -2.408,-0.65 -2.977,-0.172 -2.997,-0.031 -2.899,0.043 -2.794,0.115 -2.68,0.187 -2.561,0.264 -2.446,0.368 -2.337,0.504 -2.235,0.672 -2.141,0.86 -2.057,1.011 -1.984,1.113 -1.924,1.166 -1.874,1.188 -1.834,1.256 -1.802,1.388 -1.78,1.584 -1.754,1.811 -1.675,1.928 -1.531,1.901 -1.323,1.73 -1.07,1.452 -0.855,1.213 -0.698,1.052 -0.6,0.967 -0.552,0.945 -0.522,0.928 -0.503,0.903 -0.493,0.87 -0.494,0.835 -0.508,0.825 -0.536,0.847 -0.579,0.9 -0.632,0.979 -0.685,1.061 -0.733,1.139 -0.777,1.213 -0.818,1.283 -0.853,1.349 -0.884,1.411 -0.91,1.467 -0.932,1.519 -0.949,1.566 -0.961,1.609 -0.968,1.646 -0.971,1.679 -0.968,1.707 -0.961,1.73 -0.949,1.748 -0.933,1.761 -0.911,1.769 -0.885,1.772 -0.854,1.77 -0.818,1.762 -0.777,1.75 -0.732,1.731 -0.681,1.708 -0.627,1.679 -0.567,1.644 -0.503,1.602 -0.435,1.555 -0.363,1.501 -0.287,1.44 -0.209,1.372 -0.128,1.296 -0.046,1.215 0.037,1.129 0.118,1.041 0.199,0.95 0.278,0.857 0.357,0.767 0.437,0.68 0.517,0.597 0.597,0.517 0.68,0.437 0.767,0.357 0.857,0.278 0.95,0.199 1.041,0.118 1.129,0.037 1.215,-0.046 1.296,-0.128 1.372,-0.209 z m -33.883,-102.444 1.682,-0.703 1.733,-0.686 1.778,-0.669 1.815,-0.651 1.846,-0.633 1.869,-0.614 1.885,-0.595 1.894,-0.576 1.897,-0.557 1.892,-0.537 1.881,-0.517 1.863,-0.497 1.838,-0.477 1.807,-0.457 1.769,-0.437 1.723,-0.416 1.672,-0.395 1.614,-0.375 1.549,-0.354 1.477,-0.333 1.4,-0.312 1.316,-0.291 1.227,-0.27 1.133,-0.25 1.043,-0.212 0.992,-0.088 0.991,0.139 1.039,0.469 1.13,0.873 1.238,1.224 1.356,1.493 1.485,1.679 1.615,1.786 1.713,1.827 1.77,1.805 1.786,1.722 1.775,1.591 1.795,1.475 1.861,1.387 1.973,1.329 2.067,1.296 1.89,1.274 1.379,1.259 0.534,1.252 -0.534,1.252 -1.379,1.259 -1.89,1.274 -2.067,1.296 -1.973,1.329 -1.861,1.387 -1.795,1.475 -1.775,1.591 -1.786,1.722 -1.77,1.805 -1.713,1.827 -1.615,1.786 -1.485,1.679 -1.356,1.493 -1.238,1.224 -1.13,0.873 -1.039,0.469 -0.991,0.139 -0.992,-0.088 -1.043,-0.212 -1.133,-0.25 -1.227,-0.27 -1.316,-0.291 -1.4,-0.312 -1.477,-0.333 -1.549,-0.354 -1.614,-0.375 -1.672,-0.395 -1.723,-0.416 -1.769,-0.437 -1.807,-0.457 -1.838,-0.477 -1.863,-0.497 -1.881,-0.517 -1.892,-0.537 -1.897,-0.557 -1.894,-0.576 -1.885,-0.595 -1.869,-0.614 -1.846,-0.633 -1.815,-0.651 -1.778,-0.669 -1.733,-0.686 -1.682,-0.703 -1.623,-0.719 -1.556,-0.733 -1.482,-0.747 -1.401,-0.759 -1.311,-0.769 -1.215,-0.777 -1.111,-0.78 -1,-0.781 -0.883,-0.778 -0.764,-0.771 -0.643,-0.76 -0.521,-0.746 -0.399,-0.73 -0.281,-0.716 -0.165,-0.707 -0.054,-0.703 0.054,-0.703 0.165,-0.707 0.281,-0.716 0.4,-0.73 0.521,-0.746 0.643,-0.76 0.764,-0.771 0.883,-0.778 1,-0.781 1.111,-0.78 1.215,-0.777 1.311,-0.769 1.401,-0.759 1.482,-0.747 1.556,-0.733 z m 189.585,-78.493 -1.501,0.363 -1.555,0.435 -1.602,0.503 -1.644,0.567 -1.679,0.627 -1.708,0.681 -1.732,0.732 -1.75,0.777 -1.762,0.818 -1.77,0.854 -1.772,0.885 -1.769,0.911 -1.761,0.933 -1.748,0.949 -1.73,0.961 -1.707,0.968 -1.679,0.971 -1.646,0.968 -1.609,0.961 -1.566,0.949 -1.519,0.932 -1.467,0.91 -1.411,0.884 -1.349,0.853 -1.283,0.818 -1.213,0.777 -1.139,0.733 -1.061,0.685 -0.979,0.632 -0.9,0.579 -0.847,0.536 -0.825,0.508 -0.835,0.494 -0.87,0.493 -0.903,0.503 -0.928,0.522 -0.945,0.552 -0.964,0.6 -1.03,0.697 -1.154,0.852 -1.335,1.064 -1.548,1.313 -1.685,1.52 -1.721,1.666 -1.654,1.75 -1.507,1.783 -1.367,1.811 -1.256,1.845 -1.174,1.884 -1.114,1.93 -1.05,1.988 -0.975,2.058 -0.889,2.141 -0.794,2.235 -0.691,2.337 -0.582,2.446 -0.467,2.561 -0.348,2.68 -0.233,2.794 -0.125,2.899 -0.023,2.997 0.14,2.977 0.634,2.408 1.527,1.181 2.82,-0.704 4.308,-2.964 5.175,-4.467 5.219,-4.932 4.439,-4.359 3.037,-2.979 1.817,-1.73 0.982,-0.845 0.531,-0.322 0.402,-0.108 0.342,0.021 0.288,0.121 0.24,0.192 0.192,0.24 0.121,0.288 0.021,0.342 -0.108,0.402 -0.322,0.531 -0.845,0.982 -1.73,1.817 -2.979,3.037 -4.359,4.439 -4.932,5.219 -4.467,5.175 -2.964,4.308 -0.704,2.821 1.181,1.533 2.408,0.65 2.977,0.172 2.997,0.031 2.899,-0.043 2.794,-0.115 2.68,-0.187 2.561,-0.264 2.446,-0.368 2.337,-0.504 2.235,-0.672 2.141,-0.86 2.057,-1.011 1.984,-1.113 1.924,-1.166 1.874,-1.188 1.834,-1.256 1.802,-1.388 1.78,-1.584 1.754,-1.811 1.675,-1.928 1.531,-1.901 1.323,-1.73 1.07,-1.452 0.855,-1.213 0.698,-1.052 0.6,-0.967 0.552,-0.945 0.522,-0.928 0.503,-0.903 0.493,-0.87 0.494,-0.835 0.508,-0.825 0.536,-0.847 0.579,-0.9 0.632,-0.979 0.685,-1.061 0.733,-1.139 0.777,-1.213 0.818,-1.283 0.853,-1.349 0.884,-1.411 0.91,-1.467 0.932,-1.519 0.949,-1.566 0.961,-1.609 0.968,-1.646 0.971,-1.679 0.968,-1.707 0.961,-1.73 0.949,-1.748 0.933,-1.761 0.911,-1.769 0.885,-1.772 0.854,-1.77 0.818,-1.762 0.777,-1.75 0.732,-1.731 0.681,-1.708 0.627,-1.679 0.567,-1.644 0.503,-1.602 0.435,-1.555 0.363,-1.501 0.287,-1.44 0.209,-1.372 0.128,-1.296 0.046,-1.215 -0.037,-1.129 -0.118,-1.041 -0.199,-0.95 -0.278,-0.857 -0.357,-0.767 -0.437,-0.68 -0.517,-0.597 -0.597,-0.517 -0.68,-0.437 -0.767,-0.357 -0.857,-0.278 -0.95,-0.199 -1.041,-0.118 -1.129,-0.037 -1.215,0.046 -1.296,0.128 -1.372,0.209 z m -155.702,0 1.501,0.363 1.555,0.435 1.602,0.503 1.644,0.567 1.679,0.627 1.708,0.681 1.732,0.732 1.75,0.777 1.762,0.818 1.77,0.854 1.772,0.885 1.769,0.911 1.761,0.933 1.748,0.949 1.73,0.961 1.707,0.968 1.679,0.971 1.646,0.968 1.609,0.961 1.566,0.949 1.519,0.932 1.467,0.91 1.411,0.884 1.349,0.853 1.283,0.818 1.213,0.777 1.139,0.733 1.061,0.685 0.979,0.632 0.9,0.579 0.847,0.536 0.825,0.508 0.835,0.494 0.87,0.493 0.903,0.503 0.928,0.522 0.945,0.552 0.964,0.6 1.03,0.697 1.154,0.852 1.335,1.064 1.548,1.313 1.685,1.52 1.721,1.666 1.654,1.75 1.507,1.783 1.367,1.811 1.256,1.845 1.174,1.884 1.114,1.93 1.05,1.988 0.975,2.058 0.889,2.141 0.794,2.235 0.691,2.337 0.582,2.446 0.467,2.561 0.348,2.68 0.233,2.794 0.125,2.899 0.023,2.997 -0.14,2.977 -0.634,2.408 -1.527,1.181 -2.82,-0.704 -4.308,-2.964 -5.175,-4.467 -5.219,-4.932 -4.439,-4.359 -3.037,-2.979 -1.817,-1.73 -0.982,-0.845 -0.531,-0.322 -0.402,-0.108 -0.342,0.021 -0.288,0.121 -0.24,0.192 -0.192,0.24 -0.121,0.288 -0.021,0.342 0.108,0.402 0.322,0.531 0.845,0.982 1.73,1.817 2.979,3.037 4.359,4.439 4.932,5.219 4.467,5.175 2.964,4.308 0.704,2.821 -1.181,1.533 -2.408,0.65 -2.977,0.172 -2.997,0.031 -2.899,-0.043 -2.794,-0.115 -2.68,-0.187 -2.561,-0.264 -2.446,-0.368 -2.337,-0.504 -2.235,-0.672 -2.141,-0.86 -2.057,-1.011 -1.984,-1.113 -1.924,-1.166 -1.874,-1.188 -1.834,-1.256 -1.802,-1.388 -1.78,-1.584 -1.754,-1.811 -1.675,-1.928 -1.531,-1.901 -1.323,-1.73 -1.07,-1.452 -0.855,-1.213 -0.698,-1.052 -0.6,-0.967 -0.552,-0.945 -0.522,-0.928 -0.503,-0.903 -0.493,-0.87 -0.494,-0.835 -0.508,-0.825 -0.536,-0.847 -0.579,-0.9 -0.632,-0.979 -0.685,-1.061 -0.733,-1.139 -0.777,-1.213 -0.818,-1.283 -0.853,-1.349 -0.884,-1.411 -0.91,-1.467 -0.932,-1.519 -0.949,-1.566 -0.961,-1.609 -0.968,-1.646 -0.971,-1.679 -0.968,-1.707 -0.961,-1.73 -0.949,-1.748 -0.933,-1.761 -0.911,-1.769 -0.885,-1.772 -0.854,-1.77 -0.818,-1.762 -0.777,-1.75 -0.732,-1.731 -0.681,-1.708 -0.627,-1.679 -0.567,-1.644 -0.503,-1.602 -0.435,-1.555 -0.363,-1.501 -0.287,-1.44 -0.209,-1.372 -0.128,-1.296 -0.046,-1.215 0.037,-1.129 0.118,-1.041 0.199,-0.95 0.278,-0.857 0.357,-0.767 0.437,-0.68 0.517,-0.597 0.597,-0.517 0.68,-0.437 0.767,-0.357 0.857,-0.278 0.95,-0.199 1.041,-0.118 1.129,-0.037 1.215,0.046 1.296,0.128 1.372,0.209 z"
         style="fill:#ffffff;fill-opacity:1;stroke:none" />
      <circle
         r="9.1156273"
         cy="1126.144"
         cx="1126.1455"
         id="path904"
         style="fill:#ffffff;fill-opacity:1;stroke:none;stroke-width:3.18388;stroke-linecap:round;paint-order:stroke fill markers" />
    </g>
  </g>
</svg>
